<svg width="316" height="90" viewBox="0 0 316 90" fill="none" xmlns="http://www.w3.org/2000/svg">
<g clip-path="url(#clip0_17_2665)">
<path d="M22.9229 90H38.2595L48.1046 72.9911L40.4055 59.7062L22.9229 90Z" fill="#010004"/>
<path d="M0 90H15.3366L40.3577 46.7472L65.7001 90H103.314L51.7987 0L44.3422 13.0859L81.3921 77.7885H73.423L40.3167 19.9101L0 90Z" fill="#010004"/>
<path d="M141.365 22.0773H149.491L172.226 75.0383H161.492L156.572 62.9194H133.686L128.916 75.0383H118.404L141.365 22.0773ZM153.291 54.8436L145.165 33.3012L136.892 54.8436H153.291Z" fill="#010004"/>
<path d="M176.771 22.0773H194.513C197.049 22.0773 199.496 22.3277 201.857 22.8249C204.218 23.3256 206.293 24.1589 208.08 25.3317C209.87 26.5045 211.295 28.075 212.365 30.0434C213.435 32.0152 213.968 34.4705 213.968 37.4128C213.968 40.7529 213.397 43.4483 212.252 45.4921C211.108 47.5359 209.57 49.1202 207.632 50.2415C205.695 51.3629 203.446 52.1242 200.887 52.522C198.327 52.9232 195.655 53.1221 192.873 53.1221H186.165V75.0383H176.771V22.0773ZM191.831 45.0428C193.174 45.0428 194.565 44.9948 196.007 44.892C197.449 44.7925 198.778 44.4942 199.995 43.9935C201.211 43.4963 202.206 42.7487 202.978 41.7508C203.747 40.7529 204.133 39.3572 204.133 37.5603C204.133 35.9143 203.784 34.6043 203.091 33.6338C202.394 32.6599 201.498 31.9123 200.408 31.3911C199.315 30.8664 198.098 30.5304 196.755 30.3829C195.412 30.2355 194.12 30.16 192.88 30.16H186.172V45.0463H191.838L191.831 45.0428Z" fill="#010004"/>
<path d="M218.591 22.0773H236.928C239.464 22.0773 241.911 22.3139 244.272 22.7872C246.633 23.2604 248.731 24.0731 250.57 25.2185C252.408 26.3673 253.874 27.9104 254.968 29.8548C256.061 31.7992 256.608 34.2682 256.608 37.2619C256.608 41.1027 255.552 44.3193 253.44 46.9118C251.329 49.5043 248.308 51.0749 244.385 51.6235L258.399 75.0383H247.067L234.844 52.5974H227.985V75.0383H218.591V22.0773ZM235.288 44.5216C236.631 44.5216 237.971 44.4599 239.314 44.333C240.657 44.2095 241.887 43.9112 243.004 43.4345C244.122 42.9613 245.027 42.2377 245.724 41.2638C246.418 40.2899 246.767 38.932 246.767 37.1865C246.767 35.6399 246.442 34.3951 245.796 33.4452C245.15 32.4987 244.306 31.7889 243.26 31.3122C242.218 30.839 241.06 30.5269 239.795 30.3761C238.531 30.2252 237.297 30.1532 236.105 30.1532H227.979V44.5147H235.285L235.288 44.5216Z" fill="#010004"/>
<path fill-rule="evenodd" clip-rule="evenodd" d="M289.386 15.2052L294.393 22.4511C292.787 22.1871 291.119 22.0533 289.386 22.0533C285.6 22.0533 282.074 22.7015 278.814 24.0011C275.601 25.2528 272.796 27.0566 270.397 29.4159C267.998 31.7752 266.129 34.5666 264.786 37.79C263.443 40.9655 262.773 44.4805 262.773 48.3315C262.773 52.1825 263.419 55.67 264.714 58.9449C266.009 62.1684 267.854 64.9838 270.253 67.3911C272.652 69.7984 275.454 71.6742 278.67 73.0219C281.93 74.3216 285.501 74.9697 289.386 74.9697C293.272 74.9697 296.819 74.3216 300.031 73.0219C303.291 71.6742 306.097 69.7984 308.448 67.3911C310.847 64.9838 312.692 62.1684 313.987 58.9449C315.33 55.6735 316 52.1345 316 48.3315C316 44.5285 315.33 40.9655 313.987 37.79C313.673 37.0082 313.324 36.2537 312.945 35.5233H299.925C301.217 36.703 302.283 38.109 303.127 39.7413C304.422 42.2446 305.068 45.108 305.068 48.3315C305.068 51.555 304.398 54.4184 303.056 56.9217C301.76 59.425 299.939 61.3968 297.588 62.8405C295.237 64.2842 292.506 65.0078 289.39 65.0078C286.273 65.0078 283.54 64.2842 281.192 62.8405C278.841 61.3968 276.996 59.425 275.653 56.9217C274.31 54.4184 273.64 51.555 273.64 48.3315C273.64 45.108 274.31 42.2412 275.653 39.7413C276.996 37.2379 278.841 35.2661 281.192 33.8224C283.543 32.3787 286.273 31.6757 289.39 31.6757H289.424C289.424 31.6757 289.441 31.6757 289.448 31.6757H299.696H310.433L310.423 31.6654L300.366 15.2052H289.383H289.386Z" fill="#010004"/>
</g>
<defs>
<clipPath id="clip0_17_2665">
<rect width="316" height="90" fill="white"/>
</clipPath>
</defs>
</svg>
