<?xml version="1.0" encoding="utf-8"?>
<!-- Generator: Adobe Illustrator 25.2.3, SVG Export Plug-In . SVG Version: 6.00 Build 0)  -->
<svg fill="none" height="39" viewBox="0 0 136 39" width="100" xmlns="http://www.w3.org/2000/svg"><path d="M10.71 7.21727H18.4232C20.4886 7.21727 20.9554 7.90575 20.9554 8.85093C20.9554 9.79612 20.4886 10.5546 18.4232 10.5546H10.71V7.21727ZM10.71 16.4241H19.4617C21.4863 16.4241 22.1048 17.3285 22.1048 18.4545C22.1048 19.5806 21.4863 20.4849 19.4617 20.4849H10.71V16.4241ZM0.709656 26.7862H22.8399C30.4248 26.7862 32.9453 23.4547 32.9453 18.3845C32.9453 16.4591 31.86 13.3435 28.5285 12.4742V12.4041C30.4831 11.6398 31.6033 9.64443 31.6033 7.36314C31.6033 3.23231 29.2695 0.916021 23.966 0.916021H0.709656V26.7862ZM43.389 26.7862H53.2085V19.5047L64.8775 0.916021H54.0195L48.2491 10.3037L42.6014 0.916021H31.7084L43.3773 19.5047L43.389 26.7862ZM87.8946 26.7862H100.678L89.5924 10.8288L100.322 0.910181H86.7744L76.2723 10.8288V0.910181H66.4528V26.7803H76.2664V20.2282L80.8348 16.4591L87.8946 26.7862ZM99.441 13.8511C99.441 27.2705 110.923 27.6964 117.12 27.6964C123.316 27.6964 134.792 27.2588 134.792 13.8511C134.792 0.443425 123.31 0 117.12 0C110.929 0 99.441 0.437585 99.441 13.8453V13.8511ZM110.305 13.8453C110.305 8.59422 112.954 6.52881 117.12 6.52881C121.285 6.52881 123.923 8.58838 123.923 13.8453C123.923 19.1021 121.28 21.1676 117.12 21.1676C112.96 21.1676 110.282 19.108 110.282 13.8511" fill="white"></path><path d="M132.779 33.9277C132.935 33.9406 133.09 33.9166 133.234 33.8577C133.234 33.8577 125.346 33.811 125.346 33.8577C125.346 33.9043 129.366 33.9335 129.226 33.9393C130.306 33.9393 131.56 33.9393 132.779 33.9393" fill="#FFD330"></path><path d="M110.673 32.091C112.061 32.0326 112.907 32.0151 113.386 32.0093L114.261 31.8984H114.01L109.652 31.9684C109.068 31.9684 108.1 32.0326 108.094 32.056C108.088 32.0793 109.844 32.056 110.673 32.0968" fill="#FFD330"></path><path d="M135.323 34.8506C135.211 34.8402 135.097 34.8402 134.985 34.8506H134.81L132.68 34.8039C132.488 34.8039 133.083 34.3547 133.538 34.3197C133.853 34.3412 134.169 34.3176 134.477 34.2496C134.477 34.2496 133.176 34.1913 133.042 34.1855C132.908 34.1796 133.042 34.2555 132.879 34.2613C132.491 34.2172 132.102 34.1939 131.712 34.1913C131.659 34.1271 133.462 34.1913 133.462 34.1505C132.862 34.1063 132.259 34.1063 131.659 34.1505C130.953 34.1096 131.741 34.0746 130.895 34.0279C130.311 34.0279 129.489 34.0746 128.794 34.0279C128.794 34.0279 126.134 34.0629 124.594 33.9696H124.844C124.967 33.9346 123.462 33.9404 122.575 33.9054C122.575 33.9054 133.83 33.6895 133.83 33.6662C133.83 33.6428 132.272 33.6662 129.6 33.602C129.53 33.5612 130.551 33.602 130.352 33.5028C129.133 33.5028 127.873 33.5028 126.799 33.5028C126.939 33.5028 126.922 33.5028 126.927 33.462H122.295C124.769 33.3686 127.785 33.4095 130.807 33.462C131.087 33.5028 131.443 33.4095 131.227 33.3803C124.967 33.2461 112.359 33.3803 112.388 33.2636C112.417 33.1469 114.471 33.2228 115.515 33.2053C120.469 33.1353 126.256 33.2578 131.577 33.2811C131.735 33.2111 131.758 33.1411 131.577 33.0594C125.801 32.896 120.019 32.9485 114.249 32.8377H114.109C111.635 32.9544 107.627 32.8377 104.535 32.9544C102.201 33.0419 99.5519 33.0652 97.0664 33.1119L100.526 32.966C102.994 32.8902 105.462 32.966 107.627 32.8377C108.245 32.7968 109.482 32.8377 110.404 32.8377L111.653 32.791L110.287 32.7502C109.978 32.7152 118.123 32.686 117.82 32.5868L106.396 32.5576C105.474 32.476 107.207 32.2076 107.831 32.1901C107.878 32.1901 108 32.1901 107.989 32.1901C107.977 32.1901 107.405 32.1901 106.921 32.1609L109.71 32.1084H109.803C108.239 32.1084 105.048 32.0559 105.089 32.0325C105.13 32.0092 110.509 31.9508 113.14 31.9158C111.349 31.9158 109.301 31.875 107.528 31.875C100.38 31.9275 93.8691 31.9975 87.2353 32.0967C86.436 32.1492 85.6249 32.1842 84.8198 32.1959C83.5654 32.1959 82.1243 32.2484 80.7765 32.2601C82.9352 32.2017 85.3741 32.0442 87.5037 32.0092C87.6774 32.0059 87.8491 31.9723 88.0113 31.91C88.0113 31.91 81.1207 32.05 77.9934 32.1784C77.375 32.1784 76.4473 32.2776 75.8288 32.2776C73.0691 32.2776 70.3327 32.4118 71.1612 32.4001C70.1694 32.4526 68.3432 32.4584 66.5987 32.5401C66.3186 32.5401 66.9137 32.6627 66.9137 32.6627C67.9931 32.931 64.4807 32.8435 60.029 32.9427C56.2891 33.0127 52.1758 33.0769 50.0345 33.2869C49.6609 33.3331 49.2849 33.3564 48.9084 33.357C51.6906 32.9505 54.4939 32.7051 57.3043 32.6218C59.0897 32.6218 62.6779 32.6918 62.6837 32.5576C62.6837 32.0384 54.4337 32.6568 51.9599 32.7268C47.0239 32.8727 42.333 33.3103 37.7179 33.5845C35.8333 33.7012 33.943 33.7595 32.0584 33.8296L32.5193 33.7654C30.1855 33.8587 27.9217 33.9521 25.5179 34.1154L24.8703 34.1563C19.946 34.4888 15.7276 34.7747 10.7216 35.1598C9.4964 35.259 8.27116 35.3874 7.04592 35.4924C6.1299 35.6032 7.68187 35.5507 6.15906 35.7141C6.15906 35.7141 5.57563 35.8308 8.91297 35.5274C9.09383 35.5274 9.03548 35.6149 8.68541 35.6266C6.87672 35.7374 4.72964 35.8775 2.79842 36.1225C2.79842 36.1225 1.19973 36.1634 1.01303 36.1575C0.826327 36.1517 0.756347 36.1984 0.756347 36.1984C0.756347 36.1984 0.645466 36.3034 0.511272 36.4551L0.412096 36.5718C0.228813 36.7812 0.0934216 37.0281 0.0153543 37.2952C-0.0051181 37.4012 -0.0051181 37.5102 0.0153543 37.6161C0.0249091 37.6556 0.0365938 37.6946 0.0503599 37.7328C0.202057 38.0887 0.715497 38.3571 1.98742 38.363H2.6292C2.8159 38.363 3.1718 38.328 3.09595 38.363C2.92822 38.3825 2.76238 38.4157 2.60003 38.4621C2.82302 38.4866 3.04803 38.4866 3.27101 38.4621C3.71444 38.398 4.37372 38.2346 4.92799 38.2054C5.78566 38.1354 4.99218 38.2871 5.99572 38.2054C11.2934 37.7912 16.4628 37.5345 21.8539 37.2544C21.9822 37.2544 21.8539 37.2544 21.6789 37.2952L23.4642 37.1902L103.572 36.14C107.656 36.2042 111.682 36.2742 112.907 36.3267C113.887 36.3851 111.927 36.4668 111.915 36.4784C113.117 36.4784 113.555 36.4784 114.576 36.4784C114.85 36.4784 115.853 36.5951 115.807 36.4784C115.445 36.4506 115.086 36.392 114.733 36.3034L116.04 36.3326C116.697 36.3749 117.356 36.3749 118.012 36.3326C120.189 36.2217 122.54 36.4376 124.722 36.4901C124.064 36.5681 123.401 36.6051 122.738 36.6009C122.446 36.741 128.952 36.6009 130.364 36.5426C130.621 36.5426 131.793 36.07 131.974 36.0583L132.937 35.7841C133.328 35.7841 133.66 35.7841 134.174 35.7841C135.452 35.8775 135.101 35.434 136 35.1248C135.784 35.0731 135.563 35.0476 135.341 35.049L135.323 34.8506ZM97.6498 32.2484C99.7444 32.0675 104.651 32.12 104.704 32.1667C104.756 32.2134 99.1202 32.2834 96.1737 32.3359L97.6498 32.2484ZM92.1538 32.9077C88.1396 32.9777 83.8163 32.9836 79.8021 33.1528C79.1895 33.1528 78.2618 33.1528 77.6434 33.1528C79.7729 33.0652 81.6925 32.9544 83.8163 32.9019C84.038 32.9019 84.5747 32.9019 84.7439 32.9019C85.157 32.9051 85.5699 32.8856 85.9808 32.8435H85.2107C85.2107 32.8435 88.233 32.7677 90.6484 32.756C90.8118 32.756 90.7768 32.756 90.8585 32.8027C93.5307 32.8027 97.7024 32.6568 97.8599 32.6627L98.2041 32.616C99.1143 32.6451 100.001 32.7793 101.081 32.8027H101.39V32.6743C98.6126 32.8202 95.2169 32.6743 92.1304 32.7268L92.1538 32.9077ZM107.014 33.2286C106.641 33.2286 99.867 33.1061 96.4421 33.1644H96.3604H94.5459C94.7684 33.1639 94.9906 33.1483 95.211 33.1177H95.5728C99.6102 33.1177 103.84 33.1177 107.825 33.1761C107.566 33.2519 107.295 33.2796 107.026 33.2578L107.014 33.2286ZM122.126 33.9229C121.916 33.9229 121.134 33.9229 120.959 33.9229L122.411 33.8879C122.563 33.8879 122.581 33.9404 122.143 33.9346L122.126 33.9229ZM135.312 35.0081C135.084 34.953 134.851 34.9198 134.617 34.9089H135.201C135.545 34.9089 135.644 34.9906 135.317 35.014" fill="#FFD330"></path></svg>